<svg viewBox="0 0 21 20" fill="none" xmlns="http://www.w3.org/2000/svg">
<path d="M1.48132 1H3.48132L3.88132 3M5.48132 11H15.4813L19.4813 3H3.88132M5.48132 11L3.88132 3M5.48132 11L3.18843 13.2929C2.55847 13.9229 3.00463 15 3.89554 15H15.4813M15.4813 15C14.3768 15 13.4813 15.8954 13.4813 17C13.4813 18.1046 14.3768 19 15.4813 19C16.5859 19 17.4813 18.1046 17.4813 17C17.4813 15.8954 16.5859 15 15.4813 15ZM7.48132 17C7.48132 18.1046 6.58589 19 5.48132 19C4.37675 19 3.48132 18.1046 3.48132 17C3.48132 15.8954 4.37675 15 5.48132 15C6.58589 15 7.48132 15.8954 7.48132 17Z" stroke="#272323" stroke-opacity="0.63" stroke-width="1.5" stroke-linecap="round" stroke-linejoin="round"/>
</svg>
