<svg width="137" height="51" viewBox="5 15 137 16" fill="none" xmlns="http://www.w3.org/2000/svg">
<path d="M89.8096 0L140.455 45.75H39.1638L89.8096 0Z" fill="#3A526A" fill-opacity="0.8"/>
<path d="M55.8699 9L104.255 45.75H7.48515L55.8699 9Z" fill="#3A526A" fill-opacity="0.8"/>
<path d="M35.1785 30.6758L30.9304 43H28.3621L33.7136 28.7812H35.3542L35.1785 30.6758ZM38.7332 43L34.4753 30.6758L34.2898 28.7812H35.9402L41.3113 43H38.7332ZM38.5281 37.7266V39.6699H30.7937V37.7266H38.5281ZM55.1453 38.3711H57.5867C57.5085 39.3021 57.2481 40.1322 56.8054 40.8613C56.3627 41.584 55.741 42.1536 54.9402 42.5703C54.1394 42.987 53.1661 43.1953 52.0203 43.1953C51.1414 43.1953 50.3503 43.0391 49.6472 42.7266C48.9441 42.4076 48.3419 41.9583 47.8406 41.3789C47.3393 40.793 46.9552 40.0866 46.6882 39.2598C46.4278 38.4329 46.2976 37.5085 46.2976 36.4863V35.3047C46.2976 34.2826 46.4311 33.3581 46.698 32.5312C46.9714 31.7044 47.3621 30.998 47.8699 30.4121C48.3777 29.8197 48.9864 29.3672 49.696 29.0547C50.4122 28.7422 51.2162 28.5859 52.1082 28.5859C53.241 28.5859 54.198 28.7943 54.9792 29.2109C55.7605 29.6276 56.366 30.2038 56.7957 30.9395C57.2319 31.6751 57.4988 32.5182 57.5964 33.4688H55.155C55.0899 32.8568 54.9467 32.3327 54.7253 31.8965C54.5105 31.4603 54.1915 31.1283 53.7683 30.9004C53.3451 30.666 52.7917 30.5488 52.1082 30.5488C51.5483 30.5488 51.06 30.653 50.6433 30.8613C50.2266 31.0697 49.8783 31.3757 49.5984 31.7793C49.3184 32.1829 49.1069 32.681 48.9636 33.2734C48.8269 33.8594 48.7585 34.5299 48.7585 35.2852V36.4863C48.7585 37.2025 48.8204 37.8535 48.9441 38.4395C49.0743 39.0189 49.2696 39.5169 49.53 39.9336C49.797 40.3503 50.1355 40.6725 50.5457 40.9004C50.9558 41.1283 51.4473 41.2422 52.0203 41.2422C52.7169 41.2422 53.28 41.1315 53.7097 40.9102C54.1459 40.6888 54.4747 40.3665 54.696 39.9434C54.9239 39.5137 55.0736 38.9896 55.1453 38.3711ZM69.3699 28.7812V43H66.9382V28.7812H69.3699ZM73.8328 28.7812V30.7344H62.5144V28.7812H73.8328ZM82.325 28.7812V43H79.8738V28.7812H82.325ZM94.2449 40.4023L97.9851 28.7812H100.69L95.5925 43H93.7664L94.2449 40.4023ZM90.7878 28.7812L94.4988 40.4023L95.0066 43H93.1707L88.0925 28.7812H90.7878ZM115.589 41.0566V43H108.04V41.0566H115.589ZM108.733 28.7812V43H106.282V28.7812H108.733ZM114.602 34.7188V36.6328H108.04V34.7188H114.602ZM115.54 28.7812V30.7344H108.04V28.7812H115.54Z" fill="white"/>
</svg>