<svg width="32" height="32" viewBox="0 0 32 32" fill="none" xmlns="http://www.w3.org/2000/svg">
<path d="M31.6669 6.28346L27.2442 11.3001C26.3655 22.95 17.7251 32 7.40057 32C5.27708 32 3.51971 31.6167 2.18704 30.8667C1.11797 30.25 0.678626 29.6 0.561467 29.4C0.464533 29.2325 0.402071 29.0422 0.378735 28.8433C0.355399 28.6445 0.37179 28.4422 0.426688 28.2516C0.481586 28.0609 0.573575 27.8869 0.695801 27.7423C0.818027 27.5977 0.967339 27.4864 1.13261 27.4167C1.1619 27.4 4.61807 25.9 6.85872 23.0167C5.46914 21.8907 4.24778 20.5176 3.24146 18.9501C1.23513 15.8501 -0.888364 10.4668 0.38573 2.43348C0.425782 2.19466 0.521764 1.97258 0.663538 1.79069C0.805312 1.60881 0.987614 1.47388 1.19119 1.40015C1.39542 1.32405 1.6141 1.31333 1.82332 1.36918C2.03254 1.42503 2.22423 1.5453 2.37742 1.71681C2.42135 1.78348 7.29806 7.25012 13.2585 9.01678V8.00012C13.2642 6.94298 13.4529 5.89747 13.8137 4.92331C14.1745 3.94915 14.7003 3.0654 15.3613 2.32253C16.0222 1.57967 16.8052 0.992222 17.6656 0.593747C18.526 0.195272 19.4469 -0.00643024 20.3758 0.000156254C21.595 0.0199449 22.7889 0.398791 23.8411 1.09978C24.8934 1.80078 25.7681 2.80001 26.3802 4.00014H30.8322C31.0635 3.99931 31.2898 4.07643 31.4827 4.22176C31.6755 4.36709 31.8263 4.57413 31.9159 4.8168C32.0003 5.06308 32.0217 5.33152 31.9777 5.59108C31.9336 5.85063 31.8259 6.09068 31.6669 6.28346Z" fill="#777474"/>
</svg>
